<?xml version="1.0" encoding="UTF-8"?>
<?xml-stylesheet href="https://cdnjs.cloudflare.com/ajax/libs/font-awesome/6.7.2/css/all.min.css" type="text/css"?>
<svg aria-roledescription="er" role="graphics-document document" viewBox="0 0 745.6563110351562 722" style="max-width: 100%;" xmlns="http://www.w3.org/2000/svg" width="100%" id="graph-div" height="100%" xmlns:xlink="http://www.w3.org/1999/xlink"><style>#graph-div{font-family:"trebuchet ms",verdana,arial,sans-serif;font-size:16px;fill:#ccc;}#graph-div .error-icon{fill:#a44141;}#graph-div .error-text{fill:#ddd;stroke:#ddd;}#graph-div .edge-thickness-normal{stroke-width:1px;}#graph-div .edge-thickness-thick{stroke-width:3.5px;}#graph-div .edge-pattern-solid{stroke-dasharray:0;}#graph-div .edge-thickness-invisible{stroke-width:0;fill:none;}#graph-div .edge-pattern-dashed{stroke-dasharray:3;}#graph-div .edge-pattern-dotted{stroke-dasharray:2;}#graph-div .marker{fill:lightgrey;stroke:lightgrey;}#graph-div .marker.cross{stroke:lightgrey;}#graph-div svg{font-family:"trebuchet ms",verdana,arial,sans-serif;font-size:16px;}#graph-div p{margin:0;}#graph-div .entityBox{fill:#1f2020;stroke:#ccc;}#graph-div .attributeBoxOdd{fill:hsl(0, 0%, 32%);stroke:#ccc;}#graph-div .attributeBoxEven{fill:hsl(0, 0%, 22%);stroke:#ccc;}#graph-div .relationshipLabelBox{fill:hsl(20, 1.5873015873%, 12.3529411765%);opacity:0.7;background-color:hsl(20, 1.5873015873%, 12.3529411765%);}#graph-div .relationshipLabelBox rect{opacity:0.5;}#graph-div .relationshipLine{stroke:lightgrey;}#graph-div .entityTitleText{text-anchor:middle;font-size:18px;fill:#ccc;}#graph-div #MD_PARENT_START{fill:#f5f5f5!important;stroke:lightgrey!important;stroke-width:1;}#graph-div #MD_PARENT_END{fill:#f5f5f5!important;stroke:lightgrey!important;stroke-width:1;}#graph-div :root{--mermaid-font-family:"trebuchet ms",verdana,arial,sans-serif;}</style><g></g><defs><marker orient="auto" markerHeight="240" markerWidth="190" refY="7" refX="0" id="MD_PARENT_START"><path d="M 18,7 L9,13 L1,7 L9,1 Z"></path></marker></defs><defs><marker orient="auto" markerHeight="28" markerWidth="20" refY="7" refX="19" id="MD_PARENT_END"><path d="M 18,7 L9,13 L1,7 L9,1 Z"></path></marker></defs><defs><marker orient="auto" markerHeight="18" markerWidth="18" refY="9" refX="0" id="ONLY_ONE_START"><path d="M9,0 L9,18 M15,0 L15,18" fill="none" stroke="gray"></path></marker></defs><defs><marker orient="auto" markerHeight="18" markerWidth="18" refY="9" refX="18" id="ONLY_ONE_END"><path d="M3,0 L3,18 M9,0 L9,18" fill="none" stroke="gray"></path></marker></defs><defs><marker orient="auto" markerHeight="18" markerWidth="30" refY="9" refX="0" id="ZERO_OR_ONE_START"><circle r="6" cy="9" cx="21" fill="white" stroke="gray"></circle><path d="M9,0 L9,18" fill="none" stroke="gray"></path></marker></defs><defs><marker orient="auto" markerHeight="18" markerWidth="30" refY="9" refX="30" id="ZERO_OR_ONE_END"><circle r="6" cy="9" cx="9" fill="white" stroke="gray"></circle><path d="M21,0 L21,18" fill="none" stroke="gray"></path></marker></defs><defs><marker orient="auto" markerHeight="36" markerWidth="45" refY="18" refX="18" id="ONE_OR_MORE_START"><path d="M0,18 Q 18,0 36,18 Q 18,36 0,18 M42,9 L42,27" fill="none" stroke="gray"></path></marker></defs><defs><marker orient="auto" markerHeight="36" markerWidth="45" refY="18" refX="27" id="ONE_OR_MORE_END"><path d="M3,9 L3,27 M9,18 Q27,0 45,18 Q27,36 9,18" fill="none" stroke="gray"></path></marker></defs><defs><marker orient="auto" markerHeight="36" markerWidth="57" refY="18" refX="18" id="ZERO_OR_MORE_START"><circle r="6" cy="18" cx="48" fill="white" stroke="gray"></circle><path d="M0,18 Q18,0 36,18 Q18,36 0,18" fill="none" stroke="gray"></path></marker></defs><defs><marker orient="auto" markerHeight="36" markerWidth="57" refY="18" refX="39" id="ZERO_OR_MORE_END"><circle r="6" cy="18" cx="9" fill="white" stroke="gray"></circle><path d="M21,18 Q39,0 57,18 Q39,36 21,18" fill="none" stroke="gray"></path></marker></defs><path style="stroke: gray; fill: none;" marker-start="url(#ONLY_ONE_START)" marker-end="url(#ONE_OR_MORE_END)" d="M195.205,313.695L170.968,327.079C146.731,340.463,98.256,367.232,78.103,388.949C57.949,410.667,66.115,427.333,70.199,435.667L74.282,444" class="er relationshipLine"></path><path style="stroke: gray; fill: none;" marker-start="url(#ONLY_ONE_START)" marker-end="url(#ONE_OR_MORE_END)" d="M428.107,296.744L384.273,312.953C340.44,329.163,252.773,361.581,202.907,386.124C153.04,410.667,140.975,427.333,134.942,435.667L128.909,444" class="er relationshipLine"></path><path style="stroke: gray; fill: none;" marker-start="url(#ONLY_ONE_START)" marker-end="url(#ONE_OR_MORE_END)" d="M263.632,344L263.877,352.333C264.123,360.667,264.615,377.333,274.502,394C284.39,410.667,303.675,427.333,313.317,435.667L322.959,444" class="er relationshipLine"></path><path style="stroke: gray; fill: none;" marker-start="url(#ONLY_ONE_START)" marker-end="url(#ONE_OR_MORE_END)" d="M481.499,344L481.499,352.333C481.499,360.667,481.499,377.333,472.159,394C462.819,410.667,444.14,427.333,434.801,435.667L425.461,444" class="er relationshipLine"></path><path style="stroke: gray; fill: none;" marker-start="url(#ONLY_ONE_START)" marker-end="url(#ONE_OR_MORE_END)" d="M328.107,301.308L370.339,316.757C412.571,332.205,497.035,363.103,546.996,388.718C596.957,414.333,612.415,434.667,620.145,444.833L627.874,455" class="er relationshipLine"></path><path style="stroke: gray; fill: none;" marker-start="url(#ONLY_ONE_START)" marker-end="url(#ONE_OR_MORE_END)" d="M534.89,305.554L562.454,320.295C590.018,335.036,645.145,364.518,667.727,389.426C690.309,414.333,680.346,434.667,675.364,444.833L670.382,455" class="er relationshipLine"></path><path style="stroke: gray; fill: none;" marker-start="url(#ONLY_ONE_START)" marker-end="url(#ONE_OR_MORE_END)" d="M481.499,110L481.499,118.333C481.499,126.667,481.499,143.333,481.499,160C481.499,176.667,481.499,193.333,481.499,201.667L481.499,210" class="er relationshipLine"></path><path style="stroke: gray; fill: none;" marker-start="url(#ONLY_ONE_START)" marker-end="url(#ONE_OR_MORE_END)" d="M96.332,534L96.332,542.333C96.332,550.667,96.332,567.333,96.332,584C96.332,600.667,96.332,617.333,96.332,625.667L96.332,634" class="er relationshipLine"></path><g transform="translate(195.2051124572754,210 )" id="entity-UTILISATEUR-c245c136-aadc-5479-a24a-15e47b1e341f"><rect height="134" width="132.90188598632812" y="0" x="0" class="er entityBox"></rect><text transform="translate(66.45094299316406,12)" style="dominant-baseline: middle; text-anchor: middle; font-size: 12px;" y="0" x="0" id="text-entity-UTILISATEUR-c245c136-aadc-5479-a24a-15e47b1e341f" class="er entityLabel">UTILISATEUR</text><rect height="22" width="36.61909484863281" y="24" x="0" class="er attributeBoxOdd"></rect><text transform="translate(5,35)" style="dominant-baseline: middle; font-size: 10.2px;" y="0" x="0" id="text-entity-UTILISATEUR-c245c136-aadc-5479-a24a-15e47b1e341f-attr-1-type" class="er entityLabel">int</text><rect height="22" width="73.59510803222656" y="24" x="36.61909484863281" class="er attributeBoxOdd"></rect><text transform="translate(41.61909484863281,35)" style="dominant-baseline: middle; font-size: 10.2px;" y="0" x="0" id="text-entity-UTILISATEUR-c245c136-aadc-5479-a24a-15e47b1e341f-attr-1-name" class="er entityLabel">ID_Utilisateur</text><rect height="22" width="22.68768310546875" y="24" x="110.21420288085938" class="er attributeBoxOdd"></rect><text transform="translate(115.21420288085938,35)" style="dominant-baseline: middle; font-size: 10.2px;" y="0" x="0" id="text-entity-UTILISATEUR-c245c136-aadc-5479-a24a-15e47b1e341f-attr-1-key" class="er entityLabel">PK</text><rect height="22" width="36.61909484863281" y="46" x="0" class="er attributeBoxEven"></rect><text transform="translate(5,57)" style="dominant-baseline: middle; font-size: 10.2px;" y="0" x="0" id="text-entity-UTILISATEUR-c245c136-aadc-5479-a24a-15e47b1e341f-attr-2-type" class="er entityLabel">string</text><rect height="22" width="73.59510803222656" y="46" x="36.61909484863281" class="er attributeBoxEven"></rect><text transform="translate(41.61909484863281,57)" style="dominant-baseline: middle; font-size: 10.2px;" y="0" x="0" id="text-entity-UTILISATEUR-c245c136-aadc-5479-a24a-15e47b1e341f-attr-2-name" class="er entityLabel">Nom</text><rect height="22" width="22.68768310546875" y="46" x="110.21420288085938" class="er attributeBoxEven"></rect><text transform="translate(115.21420288085938,57)" style="dominant-baseline: middle; font-size: 10.2px;" y="0" x="0" id="text-entity-UTILISATEUR-c245c136-aadc-5479-a24a-15e47b1e341f-attr-2-key" class="er entityLabel"></text><rect height="22" width="36.61909484863281" y="68" x="0" class="er attributeBoxOdd"></rect><text transform="translate(5,79)" style="dominant-baseline: middle; font-size: 10.2px;" y="0" x="0" id="text-entity-UTILISATEUR-c245c136-aadc-5479-a24a-15e47b1e341f-attr-3-type" class="er entityLabel">string</text><rect height="22" width="73.59510803222656" y="68" x="36.61909484863281" class="er attributeBoxOdd"></rect><text transform="translate(41.61909484863281,79)" style="dominant-baseline: middle; font-size: 10.2px;" y="0" x="0" id="text-entity-UTILISATEUR-c245c136-aadc-5479-a24a-15e47b1e341f-attr-3-name" class="er entityLabel">Prenom</text><rect height="22" width="22.68768310546875" y="68" x="110.21420288085938" class="er attributeBoxOdd"></rect><text transform="translate(115.21420288085938,79)" style="dominant-baseline: middle; font-size: 10.2px;" y="0" x="0" id="text-entity-UTILISATEUR-c245c136-aadc-5479-a24a-15e47b1e341f-attr-3-key" class="er entityLabel"></text><rect height="22" width="36.61909484863281" y="90" x="0" class="er attributeBoxEven"></rect><text transform="translate(5,101)" style="dominant-baseline: middle; font-size: 10.2px;" y="0" x="0" id="text-entity-UTILISATEUR-c245c136-aadc-5479-a24a-15e47b1e341f-attr-4-type" class="er entityLabel">string</text><rect height="22" width="73.59510803222656" y="90" x="36.61909484863281" class="er attributeBoxEven"></rect><text transform="translate(41.61909484863281,101)" style="dominant-baseline: middle; font-size: 10.2px;" y="0" x="0" id="text-entity-UTILISATEUR-c245c136-aadc-5479-a24a-15e47b1e341f-attr-4-name" class="er entityLabel">Email</text><rect height="22" width="22.68768310546875" y="90" x="110.21420288085938" class="er attributeBoxEven"></rect><text transform="translate(115.21420288085938,101)" style="dominant-baseline: middle; font-size: 10.2px;" y="0" x="0" id="text-entity-UTILISATEUR-c245c136-aadc-5479-a24a-15e47b1e341f-attr-4-key" class="er entityLabel"></text><rect height="22" width="36.61909484863281" y="112" x="0" class="er attributeBoxOdd"></rect><text transform="translate(5,123)" style="dominant-baseline: middle; font-size: 10.2px;" y="0" x="0" id="text-entity-UTILISATEUR-c245c136-aadc-5479-a24a-15e47b1e341f-attr-5-type" class="er entityLabel">string</text><rect height="22" width="73.59510803222656" y="112" x="36.61909484863281" class="er attributeBoxOdd"></rect><text transform="translate(41.61909484863281,123)" style="dominant-baseline: middle; font-size: 10.2px;" y="0" x="0" id="text-entity-UTILISATEUR-c245c136-aadc-5479-a24a-15e47b1e341f-attr-5-name" class="er entityLabel">Mdp</text><rect height="22" width="22.68768310546875" y="112" x="110.21420288085938" class="er attributeBoxOdd"></rect><text transform="translate(115.21420288085938,123)" style="dominant-baseline: middle; font-size: 10.2px;" y="0" x="0" id="text-entity-UTILISATEUR-c245c136-aadc-5479-a24a-15e47b1e341f-attr-5-key" class="er entityLabel"></text></g><g transform="translate(428.1069984436035,210 )" id="entity-LIVRE-6f6bdad8-76c5-5189-81c7-a35706223da0"><rect height="134" width="106.78329467773438" y="0" x="0" class="er entityBox"></rect><text transform="translate(53.39164733886719,12)" style="dominant-baseline: middle; text-anchor: middle; font-size: 12px;" y="0" x="0" id="text-entity-LIVRE-6f6bdad8-76c5-5189-81c7-a35706223da0" class="er entityLabel">LIVRE</text><rect height="22" width="36.61909484863281" y="24" x="0" class="er attributeBoxOdd"></rect><text transform="translate(5,35)" style="dominant-baseline: middle; font-size: 10.2px;" y="0" x="0" id="text-entity-LIVRE-6f6bdad8-76c5-5189-81c7-a35706223da0-attr-1-type" class="er entityLabel">int</text><rect height="22" width="47.47651672363281" y="24" x="36.61909484863281" class="er attributeBoxOdd"></rect><text transform="translate(41.61909484863281,35)" style="dominant-baseline: middle; font-size: 10.2px;" y="0" x="0" id="text-entity-LIVRE-6f6bdad8-76c5-5189-81c7-a35706223da0-attr-1-name" class="er entityLabel">ID_Livre</text><rect height="22" width="22.68768310546875" y="24" x="84.09561157226562" class="er attributeBoxOdd"></rect><text transform="translate(89.09561157226562,35)" style="dominant-baseline: middle; font-size: 10.2px;" y="0" x="0" id="text-entity-LIVRE-6f6bdad8-76c5-5189-81c7-a35706223da0-attr-1-key" class="er entityLabel">PK</text><rect height="22" width="36.61909484863281" y="46" x="0" class="er attributeBoxEven"></rect><text transform="translate(5,57)" style="dominant-baseline: middle; font-size: 10.2px;" y="0" x="0" id="text-entity-LIVRE-6f6bdad8-76c5-5189-81c7-a35706223da0-attr-2-type" class="er entityLabel">string</text><rect height="22" width="47.47651672363281" y="46" x="36.61909484863281" class="er attributeBoxEven"></rect><text transform="translate(41.61909484863281,57)" style="dominant-baseline: middle; font-size: 10.2px;" y="0" x="0" id="text-entity-LIVRE-6f6bdad8-76c5-5189-81c7-a35706223da0-attr-2-name" class="er entityLabel">Titre</text><rect height="22" width="22.68768310546875" y="46" x="84.09561157226562" class="er attributeBoxEven"></rect><text transform="translate(89.09561157226562,57)" style="dominant-baseline: middle; font-size: 10.2px;" y="0" x="0" id="text-entity-LIVRE-6f6bdad8-76c5-5189-81c7-a35706223da0-attr-2-key" class="er entityLabel"></text><rect height="22" width="36.61909484863281" y="68" x="0" class="er attributeBoxOdd"></rect><text transform="translate(5,79)" style="dominant-baseline: middle; font-size: 10.2px;" y="0" x="0" id="text-entity-LIVRE-6f6bdad8-76c5-5189-81c7-a35706223da0-attr-3-type" class="er entityLabel">string</text><rect height="22" width="47.47651672363281" y="68" x="36.61909484863281" class="er attributeBoxOdd"></rect><text transform="translate(41.61909484863281,79)" style="dominant-baseline: middle; font-size: 10.2px;" y="0" x="0" id="text-entity-LIVRE-6f6bdad8-76c5-5189-81c7-a35706223da0-attr-3-name" class="er entityLabel">Editeur</text><rect height="22" width="22.68768310546875" y="68" x="84.09561157226562" class="er attributeBoxOdd"></rect><text transform="translate(89.09561157226562,79)" style="dominant-baseline: middle; font-size: 10.2px;" y="0" x="0" id="text-entity-LIVRE-6f6bdad8-76c5-5189-81c7-a35706223da0-attr-3-key" class="er entityLabel"></text><rect height="22" width="36.61909484863281" y="90" x="0" class="er attributeBoxEven"></rect><text transform="translate(5,101)" style="dominant-baseline: middle; font-size: 10.2px;" y="0" x="0" id="text-entity-LIVRE-6f6bdad8-76c5-5189-81c7-a35706223da0-attr-4-type" class="er entityLabel">string</text><rect height="22" width="47.47651672363281" y="90" x="36.61909484863281" class="er attributeBoxEven"></rect><text transform="translate(41.61909484863281,101)" style="dominant-baseline: middle; font-size: 10.2px;" y="0" x="0" id="text-entity-LIVRE-6f6bdad8-76c5-5189-81c7-a35706223da0-attr-4-name" class="er entityLabel">Genre</text><rect height="22" width="22.68768310546875" y="90" x="84.09561157226562" class="er attributeBoxEven"></rect><text transform="translate(89.09561157226562,101)" style="dominant-baseline: middle; font-size: 10.2px;" y="0" x="0" id="text-entity-LIVRE-6f6bdad8-76c5-5189-81c7-a35706223da0-attr-4-key" class="er entityLabel"></text><rect height="22" width="36.61909484863281" y="112" x="0" class="er attributeBoxOdd"></rect><text transform="translate(5,123)" style="dominant-baseline: middle; font-size: 10.2px;" y="0" x="0" id="text-entity-LIVRE-6f6bdad8-76c5-5189-81c7-a35706223da0-attr-5-type" class="er entityLabel">string</text><rect height="22" width="47.47651672363281" y="112" x="36.61909484863281" class="er attributeBoxOdd"></rect><text transform="translate(41.61909484863281,123)" style="dominant-baseline: middle; font-size: 10.2px;" y="0" x="0" id="text-entity-LIVRE-6f6bdad8-76c5-5189-81c7-a35706223da0-attr-5-name" class="er entityLabel">ISBN</text><rect height="22" width="22.68768310546875" y="112" x="84.09561157226562" class="er attributeBoxOdd"></rect><text transform="translate(89.09561157226562,123)" style="dominant-baseline: middle; font-size: 10.2px;" y="0" x="0" id="text-entity-LIVRE-6f6bdad8-76c5-5189-81c7-a35706223da0-attr-5-key" class="er entityLabel"></text></g><g transform="translate(423.73859786987305,20 )" id="entity-AUTEUR-274e9f49-f0c6-57b9-a3a4-0258c066b5a1"><rect height="90" width="115.52009582519531" y="0" x="0" class="er entityBox"></rect><text transform="translate(57.760047912597656,12)" style="dominant-baseline: middle; text-anchor: middle; font-size: 12px;" y="0" x="0" id="text-entity-AUTEUR-274e9f49-f0c6-57b9-a3a4-0258c066b5a1" class="er entityLabel">AUTEUR</text><rect height="22" width="36.61909484863281" y="24" x="0" class="er attributeBoxOdd"></rect><text transform="translate(5,35)" style="dominant-baseline: middle; font-size: 10.2px;" y="0" x="0" id="text-entity-AUTEUR-274e9f49-f0c6-57b9-a3a4-0258c066b5a1-attr-1-type" class="er entityLabel">int</text><rect height="22" width="56.21331787109375" y="24" x="36.61909484863281" class="er attributeBoxOdd"></rect><text transform="translate(41.61909484863281,35)" style="dominant-baseline: middle; font-size: 10.2px;" y="0" x="0" id="text-entity-AUTEUR-274e9f49-f0c6-57b9-a3a4-0258c066b5a1-attr-1-name" class="er entityLabel">ID_Auteur</text><rect height="22" width="22.68768310546875" y="24" x="92.83241271972656" class="er attributeBoxOdd"></rect><text transform="translate(97.83241271972656,35)" style="dominant-baseline: middle; font-size: 10.2px;" y="0" x="0" id="text-entity-AUTEUR-274e9f49-f0c6-57b9-a3a4-0258c066b5a1-attr-1-key" class="er entityLabel">PK</text><rect height="22" width="36.61909484863281" y="46" x="0" class="er attributeBoxEven"></rect><text transform="translate(5,57)" style="dominant-baseline: middle; font-size: 10.2px;" y="0" x="0" id="text-entity-AUTEUR-274e9f49-f0c6-57b9-a3a4-0258c066b5a1-attr-2-type" class="er entityLabel">string</text><rect height="22" width="56.21331787109375" y="46" x="36.61909484863281" class="er attributeBoxEven"></rect><text transform="translate(41.61909484863281,57)" style="dominant-baseline: middle; font-size: 10.2px;" y="0" x="0" id="text-entity-AUTEUR-274e9f49-f0c6-57b9-a3a4-0258c066b5a1-attr-2-name" class="er entityLabel">Nom</text><rect height="22" width="22.68768310546875" y="46" x="92.83241271972656" class="er attributeBoxEven"></rect><text transform="translate(97.83241271972656,57)" style="dominant-baseline: middle; font-size: 10.2px;" y="0" x="0" id="text-entity-AUTEUR-274e9f49-f0c6-57b9-a3a4-0258c066b5a1-attr-2-key" class="er entityLabel"></text><rect height="22" width="36.61909484863281" y="68" x="0" class="er attributeBoxOdd"></rect><text transform="translate(5,79)" style="dominant-baseline: middle; font-size: 10.2px;" y="0" x="0" id="text-entity-AUTEUR-274e9f49-f0c6-57b9-a3a4-0258c066b5a1-attr-3-type" class="er entityLabel">string</text><rect height="22" width="56.21331787109375" y="68" x="36.61909484863281" class="er attributeBoxOdd"></rect><text transform="translate(41.61909484863281,79)" style="dominant-baseline: middle; font-size: 10.2px;" y="0" x="0" id="text-entity-AUTEUR-274e9f49-f0c6-57b9-a3a4-0258c066b5a1-attr-3-name" class="er entityLabel">Prenom</text><rect height="22" width="22.68768310546875" y="68" x="92.83241271972656" class="er attributeBoxOdd"></rect><text transform="translate(97.83241271972656,79)" style="dominant-baseline: middle; font-size: 10.2px;" y="0" x="0" id="text-entity-AUTEUR-274e9f49-f0c6-57b9-a3a4-0258c066b5a1-attr-3-key" class="er entityLabel"></text></g><g transform="translate(31.298171997070312,444 )" id="entity-EMPRUNT-841676e7-7fd0-5ab6-9210-78dc588587d5"><rect height="90" width="130.0680389404297" y="0" x="0" class="er entityBox"></rect><text transform="translate(65.03401947021484,12)" style="dominant-baseline: middle; text-anchor: middle; font-size: 12px;" y="0" x="0" id="text-entity-EMPRUNT-841676e7-7fd0-5ab6-9210-78dc588587d5" class="er entityLabel">EMPRUNT</text><rect height="22" width="31.0858154296875" y="24" x="0" class="er attributeBoxOdd"></rect><text transform="translate(5,35)" style="dominant-baseline: middle; font-size: 10.2px;" y="0" x="0" id="text-entity-EMPRUNT-841676e7-7fd0-5ab6-9210-78dc588587d5-attr-1-type" class="er entityLabel">int</text><rect height="22" width="76.29454040527344" y="24" x="31.0858154296875" class="er attributeBoxOdd"></rect><text transform="translate(36.0858154296875,35)" style="dominant-baseline: middle; font-size: 10.2px;" y="0" x="0" id="text-entity-EMPRUNT-841676e7-7fd0-5ab6-9210-78dc588587d5-attr-1-name" class="er entityLabel">ID_Emprunt</text><rect height="22" width="22.68768310546875" y="24" x="107.38035583496094" class="er attributeBoxOdd"></rect><text transform="translate(112.38035583496094,35)" style="dominant-baseline: middle; font-size: 10.2px;" y="0" x="0" id="text-entity-EMPRUNT-841676e7-7fd0-5ab6-9210-78dc588587d5-attr-1-key" class="er entityLabel">PK</text><rect height="22" width="31.0858154296875" y="46" x="0" class="er attributeBoxEven"></rect><text transform="translate(5,57)" style="dominant-baseline: middle; font-size: 10.2px;" y="0" x="0" id="text-entity-EMPRUNT-841676e7-7fd0-5ab6-9210-78dc588587d5-attr-2-type" class="er entityLabel">date</text><rect height="22" width="76.29454040527344" y="46" x="31.0858154296875" class="er attributeBoxEven"></rect><text transform="translate(36.0858154296875,57)" style="dominant-baseline: middle; font-size: 10.2px;" y="0" x="0" id="text-entity-EMPRUNT-841676e7-7fd0-5ab6-9210-78dc588587d5-attr-2-name" class="er entityLabel">Date_Emprunt</text><rect height="22" width="22.68768310546875" y="46" x="107.38035583496094" class="er attributeBoxEven"></rect><text transform="translate(112.38035583496094,57)" style="dominant-baseline: middle; font-size: 10.2px;" y="0" x="0" id="text-entity-EMPRUNT-841676e7-7fd0-5ab6-9210-78dc588587d5-attr-2-key" class="er entityLabel"></text><rect height="22" width="31.0858154296875" y="68" x="0" class="er attributeBoxOdd"></rect><text transform="translate(5,79)" style="dominant-baseline: middle; font-size: 10.2px;" y="0" x="0" id="text-entity-EMPRUNT-841676e7-7fd0-5ab6-9210-78dc588587d5-attr-3-type" class="er entityLabel">date</text><rect height="22" width="76.29454040527344" y="68" x="31.0858154296875" class="er attributeBoxOdd"></rect><text transform="translate(36.0858154296875,79)" style="dominant-baseline: middle; font-size: 10.2px;" y="0" x="0" id="text-entity-EMPRUNT-841676e7-7fd0-5ab6-9210-78dc588587d5-attr-3-name" class="er entityLabel">Date_Retour</text><rect height="22" width="22.68768310546875" y="68" x="107.38035583496094" class="er attributeBoxOdd"></rect><text transform="translate(112.38035583496094,79)" style="dominant-baseline: middle; font-size: 10.2px;" y="0" x="0" id="text-entity-EMPRUNT-841676e7-7fd0-5ab6-9210-78dc588587d5-attr-3-key" class="er entityLabel"></text></g><g transform="translate(309.41358184814453,444 )" id="entity-AVIS-b147dfdc-e2ea-5552-8c3a-e39b2021d53f"><rect height="90" width="131.2274169921875" y="0" x="0" class="er entityBox"></rect><text transform="translate(65.61370849609375,12)" style="dominant-baseline: middle; text-anchor: middle; font-size: 12px;" y="0" x="0" id="text-entity-AVIS-b147dfdc-e2ea-5552-8c3a-e39b2021d53f" class="er entityLabel">AVIS</text><rect height="22" width="36.61909484863281" y="24" x="0" class="er attributeBoxOdd"></rect><text transform="translate(5,35)" style="dominant-baseline: middle; font-size: 10.2px;" y="0" x="0" id="text-entity-AVIS-b147dfdc-e2ea-5552-8c3a-e39b2021d53f-attr-1-type" class="er entityLabel">int</text><rect height="22" width="71.92063903808594" y="24" x="36.61909484863281" class="er attributeBoxOdd"></rect><text transform="translate(41.61909484863281,35)" style="dominant-baseline: middle; font-size: 10.2px;" y="0" x="0" id="text-entity-AVIS-b147dfdc-e2ea-5552-8c3a-e39b2021d53f-attr-1-name" class="er entityLabel">ID_Avis</text><rect height="22" width="22.68768310546875" y="24" x="108.53973388671875" class="er attributeBoxOdd"></rect><text transform="translate(113.53973388671875,35)" style="dominant-baseline: middle; font-size: 10.2px;" y="0" x="0" id="text-entity-AVIS-b147dfdc-e2ea-5552-8c3a-e39b2021d53f-attr-1-key" class="er entityLabel">PK</text><rect height="22" width="36.61909484863281" y="46" x="0" class="er attributeBoxEven"></rect><text transform="translate(5,57)" style="dominant-baseline: middle; font-size: 10.2px;" y="0" x="0" id="text-entity-AVIS-b147dfdc-e2ea-5552-8c3a-e39b2021d53f-attr-2-type" class="er entityLabel">int</text><rect height="22" width="71.92063903808594" y="46" x="36.61909484863281" class="er attributeBoxEven"></rect><text transform="translate(41.61909484863281,57)" style="dominant-baseline: middle; font-size: 10.2px;" y="0" x="0" id="text-entity-AVIS-b147dfdc-e2ea-5552-8c3a-e39b2021d53f-attr-2-name" class="er entityLabel">Note</text><rect height="22" width="22.68768310546875" y="46" x="108.53973388671875" class="er attributeBoxEven"></rect><text transform="translate(113.53973388671875,57)" style="dominant-baseline: middle; font-size: 10.2px;" y="0" x="0" id="text-entity-AVIS-b147dfdc-e2ea-5552-8c3a-e39b2021d53f-attr-2-key" class="er entityLabel"></text><rect height="22" width="36.61909484863281" y="68" x="0" class="er attributeBoxOdd"></rect><text transform="translate(5,79)" style="dominant-baseline: middle; font-size: 10.2px;" y="0" x="0" id="text-entity-AVIS-b147dfdc-e2ea-5552-8c3a-e39b2021d53f-attr-3-type" class="er entityLabel">string</text><rect height="22" width="71.92063903808594" y="68" x="36.61909484863281" class="er attributeBoxOdd"></rect><text transform="translate(41.61909484863281,79)" style="dominant-baseline: middle; font-size: 10.2px;" y="0" x="0" id="text-entity-AVIS-b147dfdc-e2ea-5552-8c3a-e39b2021d53f-attr-3-name" class="er entityLabel">Commentaire</text><rect height="22" width="22.68768310546875" y="68" x="108.53973388671875" class="er attributeBoxOdd"></rect><text transform="translate(113.53973388671875,79)" style="dominant-baseline: middle; font-size: 10.2px;" y="0" x="0" id="text-entity-AVIS-b147dfdc-e2ea-5552-8c3a-e39b2021d53f-attr-3-key" class="er entityLabel"></text></g><g transform="translate(581.7884902954102,455 )" id="entity-RESERVATION-5109fe3f-ee2c-5a88-9977-a90a113e1f41"><rect height="68" width="143.8677978515625" y="0" x="0" class="er entityBox"></rect><text transform="translate(71.93389892578125,12)" style="dominant-baseline: middle; text-anchor: middle; font-size: 12px;" y="0" x="0" id="text-entity-RESERVATION-5109fe3f-ee2c-5a88-9977-a90a113e1f41" class="er entityLabel">RESERVATION</text><rect height="22" width="31.0858154296875" y="24" x="0" class="er attributeBoxOdd"></rect><text transform="translate(5,35)" style="dominant-baseline: middle; font-size: 10.2px;" y="0" x="0" id="text-entity-RESERVATION-5109fe3f-ee2c-5a88-9977-a90a113e1f41-attr-1-type" class="er entityLabel">int</text><rect height="22" width="90.09429931640625" y="24" x="31.0858154296875" class="er attributeBoxOdd"></rect><text transform="translate(36.0858154296875,35)" style="dominant-baseline: middle; font-size: 10.2px;" y="0" x="0" id="text-entity-RESERVATION-5109fe3f-ee2c-5a88-9977-a90a113e1f41-attr-1-name" class="er entityLabel">ID_Reservation</text><rect height="22" width="22.68768310546875" y="24" x="121.18011474609375" class="er attributeBoxOdd"></rect><text transform="translate(126.18011474609375,35)" style="dominant-baseline: middle; font-size: 10.2px;" y="0" x="0" id="text-entity-RESERVATION-5109fe3f-ee2c-5a88-9977-a90a113e1f41-attr-1-key" class="er entityLabel">PK</text><rect height="22" width="31.0858154296875" y="46" x="0" class="er attributeBoxEven"></rect><text transform="translate(5,57)" style="dominant-baseline: middle; font-size: 10.2px;" y="0" x="0" id="text-entity-RESERVATION-5109fe3f-ee2c-5a88-9977-a90a113e1f41-attr-2-type" class="er entityLabel">date</text><rect height="22" width="90.09429931640625" y="46" x="31.0858154296875" class="er attributeBoxEven"></rect><text transform="translate(36.0858154296875,57)" style="dominant-baseline: middle; font-size: 10.2px;" y="0" x="0" id="text-entity-RESERVATION-5109fe3f-ee2c-5a88-9977-a90a113e1f41-attr-2-name" class="er entityLabel">Date_Reservation</text><rect height="22" width="22.68768310546875" y="46" x="121.18011474609375" class="er attributeBoxEven"></rect><text transform="translate(126.18011474609375,57)" style="dominant-baseline: middle; font-size: 10.2px;" y="0" x="0" id="text-entity-RESERVATION-5109fe3f-ee2c-5a88-9977-a90a113e1f41-attr-2-key" class="er entityLabel"></text></g><g transform="translate(20,634 )" id="entity-RENOUVELLEMENT-c588773f-24fb-5b65-8f85-e9ef7b86fe3c"><rect height="68" width="152.6643829345703" y="0" x="0" class="er entityBox"></rect><text transform="translate(76.33219146728516,12)" style="dominant-baseline: middle; text-anchor: middle; font-size: 12px;" y="0" x="0" id="text-entity-RENOUVELLEMENT-c588773f-24fb-5b65-8f85-e9ef7b86fe3c" class="er entityLabel">RENOUVELLEMENT</text><rect height="22" width="31.0858154296875" y="24" x="0" class="er attributeBoxOdd"></rect><text transform="translate(5,35)" style="dominant-baseline: middle; font-size: 10.2px;" y="0" x="0" id="text-entity-RENOUVELLEMENT-c588773f-24fb-5b65-8f85-e9ef7b86fe3c-attr-1-type" class="er entityLabel">int</text><rect height="22" width="98.89088439941406" y="24" x="31.0858154296875" class="er attributeBoxOdd"></rect><text transform="translate(36.0858154296875,35)" style="dominant-baseline: middle; font-size: 10.2px;" y="0" x="0" id="text-entity-RENOUVELLEMENT-c588773f-24fb-5b65-8f85-e9ef7b86fe3c-attr-1-name" class="er entityLabel">ID_Renouvellement</text><rect height="22" width="22.68768310546875" y="24" x="129.97669982910156" class="er attributeBoxOdd"></rect><text transform="translate(134.97669982910156,35)" style="dominant-baseline: middle; font-size: 10.2px;" y="0" x="0" id="text-entity-RENOUVELLEMENT-c588773f-24fb-5b65-8f85-e9ef7b86fe3c-attr-1-key" class="er entityLabel">PK</text><rect height="22" width="31.0858154296875" y="46" x="0" class="er attributeBoxEven"></rect><text transform="translate(5,57)" style="dominant-baseline: middle; font-size: 10.2px;" y="0" x="0" id="text-entity-RENOUVELLEMENT-c588773f-24fb-5b65-8f85-e9ef7b86fe3c-attr-2-type" class="er entityLabel">date</text><rect height="22" width="98.89088439941406" y="46" x="31.0858154296875" class="er attributeBoxEven"></rect><text transform="translate(36.0858154296875,57)" style="dominant-baseline: middle; font-size: 10.2px;" y="0" x="0" id="text-entity-RENOUVELLEMENT-c588773f-24fb-5b65-8f85-e9ef7b86fe3c-attr-2-name" class="er entityLabel">Date_Renew</text><rect height="22" width="22.68768310546875" y="46" x="129.97669982910156" class="er attributeBoxEven"></rect><text transform="translate(134.97669982910156,57)" style="dominant-baseline: middle; font-size: 10.2px;" y="0" x="0" id="text-entity-RENOUVELLEMENT-c588773f-24fb-5b65-8f85-e9ef7b86fe3c-attr-2-key" class="er entityLabel"></text></g><rect height="14" width="46.216796875" y="357.1277770996094" x="85.70635986328125" class="er relationshipLabelBox"></rect><text style="text-anchor: middle; dominant-baseline: middle; font-size: 12px;" y="364.1277770996094" x="108.81475830078125" id="rel9" class="er relationshipLabel">effectue</text><rect height="14" width="49.64453125" y="349.6112060546875" x="245.45651245117188" class="er relationshipLabelBox"></rect><text style="text-anchor: middle; dominant-baseline: middle; font-size: 12px;" y="356.6112060546875" x="270.2787780761719" id="rel10" class="er relationshipLabel">concerne</text><rect height="14" width="33.23828125" y="394.4978942871094" x="262.9220886230469" class="er relationshipLabelBox"></rect><text style="text-anchor: middle; dominant-baseline: middle; font-size: 12px;" y="401.4978942871094" x="279.5412292480469" id="rel11" class="er relationshipLabel">donne</text><rect height="14" width="24.150390625" y="394.241455078125" x="455.47662353515625" class="er relationshipLabelBox"></rect><text style="text-anchor: middle; dominant-baseline: middle; font-size: 12px;" y="401.241455078125" x="467.55181884765625" id="rel12" class="er relationshipLabel">recu</text><rect height="14" width="19.162109375" y="354.8725280761719" x="478.2222595214844" class="er relationshipLabelBox"></rect><text style="text-anchor: middle; dominant-baseline: middle; font-size: 12px;" y="361.8725280761719" x="487.8033142089844" id="rel13" class="er relationshipLabel">fait</text><rect height="14" width="40.15234375" y="355.3149108886719" x="614.4016723632812" class="er relationshipLabelBox"></rect><text style="text-anchor: middle; dominant-baseline: middle; font-size: 12px;" y="362.3149108886719" x="634.4778442382812" id="rel14" class="er relationshipLabel">reserve</text><rect height="14" width="25.572265625" y="153" x="468.7128601074219" class="er relationshipLabelBox"></rect><text style="text-anchor: middle; dominant-baseline: middle; font-size: 12px;" y="160" x="481.4989929199219" id="rel15" class="er relationshipLabel">ecrit</text><rect height="14" width="7" y="577" x="92.83200073242188" class="er relationshipLabelBox"></rect><text style="text-anchor: middle; dominant-baseline: middle; font-size: 12px;" y="584" x="96.33200073242188" id="rel16" class="er relationshipLabel">a</text></svg>